<?xml version="1.0" standalone="no"?><!-- Generator: Gravit.io --><svg xmlns="http://www.w3.org/2000/svg" xmlns:xlink="http://www.w3.org/1999/xlink" style="isolation:isolate" viewBox="487.875 446.25 300.45 333.75" width="300.45" height="333.75"><g><path d=" M 754.942 780 L 537.95 780 L 537.95 446.25 L 754.942 446.25 C 773.302 446.25 788.325 461.269 788.325 479.625 L 788.325 746.625 C 788.325 764.981 773.302 780 754.942 780 Z " fill="rgb(103,58,183)"/><path d=" M 521.258 446.25 L 537.95 446.25 L 537.95 780 L 521.258 780 C 502.897 780 487.875 764.981 487.875 746.625 L 487.875 479.625 C 487.875 461.269 502.897 446.25 521.258 446.25 Z " fill="rgb(49,27,146)"/></g><path d=" M 559.405 622.736 C 559.629 622.108 559.854 621.525 560.168 620.942 C 562.276 617.085 566.267 614.663 570.663 614.663 L 749.037 614.663 C 753.432 614.663 757.469 617.085 759.532 620.942 C 759.891 621.615 760.205 622.332 760.429 623.05 C 764.286 622.422 767.246 618.475 767.246 613.676 C 767.246 608.563 763.882 604.392 759.666 604.212 C 759.307 605.737 758.635 607.173 757.693 608.428 C 755.486 611.389 752.011 613.134 748.319 613.138 L 571.38 613.138 C 567.703 613.138 564.204 611.389 562.006 608.428 C 561.109 607.217 560.437 605.827 560.078 604.347 C 556.49 605.199 553.754 609.056 553.754 613.631 C 553.754 617.982 556.131 621.57 559.405 622.736 L 559.405 622.736 Z  M 601.476 604.212 L 571.38 604.212 L 748.364 604.212 L 601.476 604.212 Z  M 571.38 613.183 L 748.364 613.183 C 752.042 613.183 755.54 611.434 757.738 608.473 C 758.68 607.217 759.352 605.737 759.711 604.257 C 760.16 602.284 760.115 600.176 759.532 598.202 C 757.467 591.555 753.373 585.721 747.826 581.518 C 742.085 577.212 735.267 574.925 728.091 574.925 L 591.698 574.925 C 584.522 574.925 577.66 577.212 571.963 581.518 C 566.416 585.721 562.322 591.555 560.257 598.202 C 559.631 600.227 559.584 602.387 560.123 604.437 C 560.482 605.872 561.109 607.262 562.051 608.518 C 564.204 611.389 567.703 613.183 571.38 613.183 L 571.38 613.183 Z  M 569.452 598.965 C 569.676 598.382 569.945 597.799 570.214 597.216 C 572.455 592.695 576.044 588.981 580.485 586.586 C 580.754 586.451 581.023 586.317 581.337 586.137 C 584.477 584.612 587.975 583.805 591.698 583.805 L 728.001 583.805 C 738.537 583.775 747.84 590.67 750.875 600.759 C 750.92 600.849 750.92 600.983 750.965 601.073 C 751.01 601.387 751.01 601.701 750.965 602.015 C 750.92 602.329 750.786 602.598 750.651 602.867 C 750.561 603.046 750.427 603.181 750.292 603.36 C 749.788 603.889 749.094 604.196 748.364 604.212 L 571.38 604.212 C 570.663 604.212 570.035 603.943 569.541 603.45 L 569.317 603.226 C 569.228 603.091 569.138 603.001 569.048 602.867 C 568.958 602.732 568.914 602.643 568.869 602.508 C 568.824 602.374 568.779 602.194 568.734 602.015 C 568.734 601.925 568.689 601.79 568.689 601.701 C 568.689 601.387 568.689 601.073 568.779 600.759 C 569.003 600.176 569.228 599.548 569.452 598.965 L 569.452 598.965 Z  M 749.037 614.663 L 570.708 614.663 C 566.312 614.663 562.276 617.085 560.212 620.942 C 559.898 621.525 559.629 622.153 559.45 622.736 C 558.284 626.19 558.732 630.002 560.751 633.097 C 567.325 643.14 578.529 649.18 590.532 649.153 L 729.347 649.153 C 741.367 649.153 752.49 643.143 759.128 633.097 C 761.538 629.435 761.728 624.741 759.621 620.897 C 757.473 617.065 753.43 614.683 749.037 614.663 L 749.037 614.663 Z  M 751.548 628.208 C 750.337 630.002 748.947 631.661 747.377 633.142 L 746.166 634.218 C 745.538 634.711 744.91 635.205 744.237 635.653 C 742.892 636.55 741.457 637.358 739.977 638.03 C 739.214 638.344 738.452 638.658 737.689 638.927 C 737.151 639.107 736.613 639.241 736.075 639.376 C 734.729 639.735 733.339 639.959 731.903 640.094 C 731.051 640.183 730.199 640.228 729.302 640.228 L 590.442 640.228 C 588.171 640.215 585.91 639.913 583.715 639.331 C 582.369 638.972 581.068 638.524 579.812 637.986 C 579.319 637.761 578.826 637.537 578.332 637.268 C 577.839 636.999 577.39 636.775 576.897 636.461 C 576.449 636.191 575.955 635.878 575.507 635.608 C 574.834 635.16 574.206 634.667 573.578 634.173 L 572.367 633.097 C 572.188 632.917 571.963 632.738 571.784 632.559 C 571.38 632.2 571.022 631.796 570.663 631.392 C 569.766 630.406 568.914 629.329 568.196 628.208 C 567.972 627.849 567.792 627.445 567.747 627.042 C 567.747 626.907 567.703 626.773 567.703 626.638 C 567.703 626.234 567.747 625.876 567.927 625.517 C 568.061 625.158 568.286 624.844 568.555 624.53 C 569.108 623.928 569.89 623.586 570.708 623.588 L 749.081 623.588 C 749.799 623.588 750.472 623.857 750.965 624.261 C 751.997 625.203 752.4 626.862 751.548 628.208 Z  M 619.596 550.481 C 620.224 549.584 621.031 548.731 621.883 547.789 C 623.677 545.816 625.695 543.618 626.861 540.479 C 630.539 531.239 626.278 519.757 617.532 515.452 C 615.11 514.241 612.15 515.272 610.939 517.694 C 609.728 520.116 610.76 523.076 613.182 524.287 C 617.263 526.306 619.461 532.405 617.712 536.846 C 617.712 536.891 617.667 536.891 617.667 536.935 C 617.129 538.326 615.963 539.627 614.617 541.107 C 613.675 542.138 612.644 543.304 611.657 544.605 C 608.293 548.911 606.903 554.472 607.8 559.81 C 608.652 564.743 611.388 568.914 615.469 571.471 C 617.775 572.923 620.82 572.242 622.287 569.946 C 623.722 567.659 623.049 564.609 620.762 563.129 C 619.057 562.052 617.891 560.258 617.532 558.105 C 617.084 555.504 617.802 552.723 619.461 550.57 C 619.506 550.615 619.551 550.57 619.596 550.481 Z  M 661.801 537.384 C 662.429 536.487 663.236 535.635 664.088 534.693 C 665.882 532.719 667.9 530.522 669.067 527.382 C 672.744 518.143 668.484 506.661 659.738 502.355 C 657.271 501.144 654.355 502.176 653.144 504.598 C 651.933 507.02 652.965 509.98 655.387 511.191 C 659.468 513.209 661.666 519.309 659.917 523.749 C 659.917 523.794 659.872 523.794 659.872 523.839 C 659.334 525.229 658.168 526.53 656.822 528.01 C 655.88 529.042 654.849 530.208 653.862 531.508 C 650.498 535.814 649.108 541.376 650.005 546.713 C 650.857 551.647 653.593 555.818 657.674 558.374 C 659.98 559.826 663.025 559.145 664.492 556.849 C 665.927 554.562 665.254 551.512 662.967 550.032 C 661.262 548.956 660.096 547.162 659.738 545.009 C 659.289 542.407 660.007 539.627 661.666 537.474 C 661.711 537.519 661.756 537.429 661.801 537.384 L 661.801 537.384 Z  M 703.602 550.481 C 704.23 549.584 705.037 548.731 705.89 547.789 C 707.684 545.816 709.702 543.618 710.868 540.479 C 714.546 531.239 710.285 519.757 701.539 515.452 C 699.117 514.241 696.157 515.272 694.946 517.694 C 693.735 520.116 694.766 523.076 697.188 524.287 C 701.27 526.306 703.468 532.405 701.718 536.846 C 701.718 536.891 701.674 536.891 701.674 536.935 C 701.135 538.326 699.969 539.627 698.624 541.107 C 697.682 542.138 696.65 543.304 695.663 544.605 C 692.3 548.911 690.909 554.472 691.806 559.81 C 692.658 564.743 695.394 568.914 699.476 571.471 C 701.781 572.923 704.826 572.242 706.293 569.946 C 707.728 567.659 707.056 564.609 704.768 563.129 C 703.064 562.052 701.898 560.258 701.539 558.105 C 701.09 555.504 701.808 552.723 703.468 550.57 C 703.512 550.615 703.557 550.57 703.602 550.481 L 703.602 550.481 Z " fill="rgb(49,27,146)"/></svg>